<?xml version="1.0" encoding="UTF-8" standalone="no"?>
<!-- Created with Inkscape (http://www.inkscape.org/) -->

<svg
   xmlns:dc="http://purl.org/dc/elements/1.1/"
   xmlns:cc="http://creativecommons.org/ns#"
   xmlns:rdf="http://www.w3.org/1999/02/22-rdf-syntax-ns#"
   xmlns:svg="http://www.w3.org/2000/svg"
   xmlns="http://www.w3.org/2000/svg"
   xmlns:xlink="http://www.w3.org/1999/xlink"
   xmlns:sodipodi="http://sodipodi.sourceforge.net/DTD/sodipodi-0.dtd"
   xmlns:inkscape="http://www.inkscape.org/namespaces/inkscape"
   height="33.232338mm"
   width="107.30743mm"
   viewBox="0 0 380.22293 117.75238"
   id="svg2"
   version="1.1"
   inkscape:version="0.91 r13725"
   sodipodi:docname="catalogIcon-container-cron.svg">
  <defs
     id="defs8">
    <inkscape:perspective
       sodipodi:type="inkscape:persp3d"
       inkscape:vp_x="0 : 526.18109 : 1"
       inkscape:vp_y="0 : 999.99997 : 0"
       inkscape:vp_z="744.0941 : 526.18109 : 1"
       inkscape:persp3d-origin="372.04689 : 350.7874 : 1"
       id="perspective3294" />
    <clipPath
       id="clipPath8">
      <path
         inkscape:connector-curvature="0"
         id="path10"
         d="m 76,2 0,46 -22,0 0,23 -18.419263,0 c -0.07818,0.665694 -0.141485,1.332869 -0.205737,2 -1.151162,12.530963 1.036422,24.087546 6.0625,33.96875 L 43.125,110 c 1.011403,1.81678 2.191241,3.52297 3.4375,5.1875 1.244725,1.66248 1.685716,2.58262 2.46875,3.6875 C 62.319911,133.81083 82.129473,141 105,141 155.64836,141 198.63299,118.56201 217.65625,68.15625 231.15302,69.54122 244.09968,66.080358 250,54.5625 240.60137,49.138835 228.52163,50.877226 221.5625,54.375 L 240,2 168,48 145,48 145,2 Z" />
    </clipPath>
  </defs>
  <sodipodi:namedview
     pagecolor="#ffffff"
     bordercolor="#666666"
     borderopacity="1"
     objecttolerance="10"
     gridtolerance="10"
     guidetolerance="10"
     inkscape:pageopacity="0"
     inkscape:pageshadow="2"
     inkscape:window-width="1855"
     inkscape:window-height="1056"
     id="namedview6"
     showgrid="false"
     inkscape:snap-text-baseline="false"
     inkscape:zoom="2.5371828"
     inkscape:cx="118.11073"
     inkscape:cy="11.745027"
     inkscape:window-x="1985"
     inkscape:window-y="24"
     inkscape:window-maximized="1"
     inkscape:current-layer="svg2"
     fit-margin-top="2"
     fit-margin-left="2"
     fit-margin-right="1"
     fit-margin-bottom="1" />
  <metadata
     id="metadata4">
    <rdf:RDF>
      <cc:Work
         rdf:about="">
        <dc:format>image/svg+xml</dc:format>
        <dc:type
           rdf:resource="http://purl.org/dc/dcmitype/StillImage" />
        <dc:title></dc:title>
      </cc:Work>
    </rdf:RDF>
  </metadata>
  <rect
     style="fill:#062a3c;fill-opacity:1"
     id="rect3450"
     width="381.06317"
     height="117.77043"
     x="-0.4798083"
     y="0.18963438" />
  <flowRoot
     xml:space="preserve"
     id="flowRoot3155"
     style="font-style:normal;font-weight:normal;font-size:40px;line-height:125%;font-family:sans-serif;letter-spacing:0px;word-spacing:0px;fill:#000000;fill-opacity:1;stroke:none;stroke-width:1px;stroke-linecap:butt;stroke-linejoin:miter;stroke-opacity:1"
     transform="translate(-1.9768936,-0.47732964)"><flowRegion
       id="flowRegion3157"><rect
         id="rect3159"
         width="113.40598"
         height="95.767029"
         x="310.68646"
         y="131.27031" /></flowRegion><flowPara
       id="flowPara3161" /></flowRoot>  <flowRoot
     xml:space="preserve"
     id="flowRoot3163"
     style="font-style:normal;font-weight:normal;font-size:40px;line-height:125%;font-family:sans-serif;letter-spacing:0px;word-spacing:0px;fill:#000000;fill-opacity:1;stroke:none;stroke-width:1px;stroke-linecap:butt;stroke-linejoin:miter;stroke-opacity:1"
     transform="translate(-1.9768936,-0.47732964)"><flowRegion
       id="flowRegion3165"><rect
         id="rect3167"
         width="192.33932"
         height="136.37173"
         x="268.01379"
         y="108.00768" /></flowRegion><flowPara
       id="flowPara3169" /></flowRoot>  <flowRoot
     xml:space="preserve"
     id="flowRoot3171"
     style="font-style:normal;font-weight:normal;font-size:40px;line-height:125%;font-family:sans-serif;letter-spacing:0px;word-spacing:0px;fill:#000000;fill-opacity:1;stroke:none;stroke-width:1px;stroke-linecap:butt;stroke-linejoin:miter;stroke-opacity:1"
     transform="translate(-1.9768936,-0.47732964)"><flowRegion
       id="flowRegion3173"><rect
         id="rect3175"
         width="126.12415"
         height="103.26414"
         x="301.90967"
         y="126.13802" /></flowRegion><flowPara
       id="flowPara3177" /></flowRoot>  <flowRoot
     xml:space="preserve"
     id="flowRoot3179"
     style="font-style:normal;font-weight:normal;font-size:40px;line-height:125%;font-family:sans-serif;letter-spacing:0px;word-spacing:0px;fill:#000000;fill-opacity:1;stroke:none;stroke-width:1px;stroke-linecap:butt;stroke-linejoin:miter;stroke-opacity:1"
     transform="translate(-1.9768936,-0.47732964)"><flowRegion
       id="flowRegion3181"><rect
         id="rect3183"
         width="159.23174"
         height="117.45311"
         x="282.99106"
         y="117.46699" /></flowRegion><flowPara
       id="flowPara3185" /></flowRoot>  <style
     id="style3372"
     type="text/css">
  .st0{fill:#FFFFFF;}
  .st1{clip-path:url(#SVGID_2_);fill:url(#SVGID_3_);}
</style>
  <g
     id="g3454"
     transform="matrix(0.41102997,0,0,0.41102997,-5.2852858,4.5115026)" />
  <text
     xml:space="preserve"
     style="font-style:normal;font-weight:normal;font-size:40px;line-height:125%;font-family:sans-serif;letter-spacing:0px;word-spacing:0px;fill:#000000;fill-opacity:1;stroke:none;stroke-width:1px;stroke-linecap:butt;stroke-linejoin:miter;stroke-opacity:1"
     x="99.216225"
     y="95.456573"
     id="text3477"
     sodipodi:linespacing="125%"><tspan
       sodipodi:role="line"
       id="tspan3479"
       x="99.216225"
       y="95.456573" /></text>
  <style
     id="style3414"
     type="text/css">
	.st0{fill:#3F4A5A;}
	.st1{fill:#333C49;}
	.st2{fill:#FFFFFF;}
	.st3{fill:#90DEA9;}
</style>
  <g
     id="g3979"
     transform="matrix(0.84132342,0,0,0.79796536,255.09188,20.313583)">
    <path
       id="path3418"
       d="m 68.506419,10.653295 -16.71861,0 c -5.12704,0.230316 -9.47388,-4.030534 -9.69679,-9.327806 -0.22292,-5.297273 3.90101,-9.788438 9.02805,-10.018755 0.22291,0 0.44582,0 0.66874,0 l 16.71861,0 c 5.12704,-0.230316 9.47388,4.030534 9.69679,9.32780599 0.22292,5.29727301 -3.90101,9.78843901 -9.02805,10.01875501 -0.22291,0 -0.44583,0 -0.66874,0 z M 51.787809,-5.008206 c -3.23226,0 -5.79578,2.648636 -5.79578,5.98822099 0,3.33958401 2.56352,5.98822101 5.79578,5.98822101 l 16.71861,0 c 3.23226,0 5.79578,-2.648637 5.79578,-5.98822101 0,-3.33958499 -2.56352,-5.98822099 -5.79578,-5.98822099 l -16.71861,0 z"
       class="st0"
       inkscape:connector-curvature="0"
       style="fill:#d40000" />
    <path
       id="path3420"
       d="m 63.713749,12.956457 -7.13327,0 0,-6.448854 c 0,-0.460632 0.22291,-0.921265 0.55728,-1.266739 0.33438,-0.345474 0.78021,-0.57579 1.22604,-0.57579 l 3.56663,0 c 0.44583,0 0.89166,0.230316 1.22603,0.57579 0.33438,0.345474 0.55729,0.921265 0.55729,1.381897 l 0,6.333696 z"
       class="st1"
       inkscape:connector-curvature="0"
       style="fill:#333c49" />
    <ellipse
       ry="53.89399"
       rx="52.162056"
       id="circle3430"
       cy="66.159492"
       cx="60.14711"
       class="st0"
       style="fill:#800080" />
    <ellipse
       ry="46.06324"
       rx="44.582954"
       id="circle3432"
       cy="66.159492"
       cx="60.14711"
       class="st2"
       style="fill:#ffffff" />
    <g
       id="g24332"
       transform="matrix(1.6266321,0,0,1.7715218,17.425689,82.241239)">
      <path
         inkscape:connector-curvature="0"
         style="fill:#394d54"
         id="path14"
         d="m 30.30535,-3.5530496 4.222408,0 0,4.31634891 2.134982,0 c 0.985902,0 1.999989,-0.17564188 2.933674,-0.49201221 0.458781,-0.15556394 0.973737,-0.37204865 1.426289,-0.64431138 -0.59605,-0.77821852 -0.900357,-1.76085802 -0.989957,-2.72945232 -0.121642,-1.3174037 0.144093,-3.0321746 1.035745,-4.0632715 l 0.44385,-0.513373 0.5289,0.4251571 c 1.331644,1.0698649 2.451552,2.5647884 2.648948,4.2689765 1.603414,-0.4716388 3.485913,-0.3600846 4.899247,0.4556178 l 0.579832,0.3345685 -0.305197,0.5956538 c -1.195276,2.33286327 -3.6941,3.0555017 -6.137147,2.9276283 -3.655717,9.1052261 -11.614632,13.4159381 -21.264778,13.4159381 -4.985583,0 -9.559756,-1.86371 -12.164498,-6.2870646 C 10.144932,8.1825858 10.014154,7.8952716 9.8754578,7.6130723 8.99498,5.6659928 8.7025424,3.5329883 8.9009292,1.4017638 l 0.059536,-0.63837862 3.6106208,0 0,-4.31634888 4.222408,0 0,-4.2224074 8.444814,0 0,-4.2224079 5.066976,0 0,8.4448153" />
      <g
         transform="matrix(0.18465877,0,0,0.18465877,3.0704715,-11.997864)"
         id="g16"
         clip-path="url(#clipPath8)">
        <g
           id="g18">
          <g
             id="g20"
             transform="translate(0,-22.866)">
            <path
               inkscape:connector-curvature="0"
               style="fill:#00acd3"
               id="path22"
               d="m 123.85901,3.8110794 19.81751,0 0,19.8169706 -19.81751,0 z" />
            <path
               inkscape:connector-curvature="0"
               style="fill:#20c2ef"
               id="path24"
               d="m 123.85901,26.676485 19.81751,0 0,19.818043 -19.81751,0 z" />
            <path
               inkscape:connector-curvature="0"
               style="stroke:#394d54;stroke-width:1.55999994"
               id="path26"
               d="m 126.29235,21.976904 0,-16.5157492 m 2.97185,16.5157492 0,-16.5157492 m 3.00184,16.5157492 0,-16.5157492 m 3.00344,16.5157492 0,-16.5157492 m 3.00292,16.5157492 0,-16.5157492 m 2.97131,16.5157492 0,-16.5157492" />
            <use
               height="100%"
               width="100%"
               y="0"
               x="0"
               xlink:href="#path26"
               id="use28"
               transform="translate(0,22.866)" />
          </g>
          <use
             height="100%"
             width="100%"
             y="0"
             x="0"
             xlink:href="#g20"
             id="use30"
             transform="matrix(1,0,0,-1,22.866,4.572651)" />
        </g>
        <use
           height="100%"
           width="100%"
           y="0"
           x="0"
           xlink:href="#g18"
           id="use32"
           transform="translate(-91.464,45.732)" />
        <use
           height="100%"
           width="100%"
           y="0"
           x="0"
           xlink:href="#g18"
           id="use34"
           transform="translate(-45.732,45.732)" />
        <use
           height="100%"
           width="100%"
           y="0"
           x="0"
           xlink:href="#g18"
           id="use36"
           transform="translate(0,45.732)" />
      </g>
      <path
         transform="matrix(0.18465877,0,0,0.18465877,3.0704715,-11.997864)"
         inkscape:connector-curvature="0"
         style="fill:#17b5eb"
         id="path38"
         clip-path="url(#clipPath8)"
         d="m 221.57014,54.379649 c 1.53332,-11.915247 -7.38383,-21.274779 -12.91407,-25.71836 -6.37269,7.367765 -7.36295,26.677556 2.63498,34.807431 -5.57952,4.956117 -17.33731,9.448435 -29.37574,9.448435 L 34,72.917155 C 32.829255,85.484184 34,146 34,146 l 217,0 -0.98657,-91.424 c -9.39863,-5.423665 -21.48419,-3.694326 -28.44332,-0.196552" />
      <path
         transform="matrix(0.18465877,0,0,0.18465877,3.0704715,-11.997864)"
         inkscape:connector-curvature="0"
         style="fill-opacity:0.17000002"
         id="path40"
         clip-path="url(#clipPath8)"
         d="m 34,89 0,57 217,0 0,-57" />
      <path
         transform="matrix(0.18465877,0,0,0.18465877,3.0704715,-11.997864)"
         inkscape:connector-curvature="0"
         style="fill:#d4edf1"
         id="path42"
         clip-path="url(#clipPath8)"
         d="M 111.23736,140.88997 C 97.697741,134.4648 90.265707,125.73081 86.130611,116.19562 L 45,118 l 21,28 45.23736,-5.11003" />
      <path
         transform="matrix(0.18465877,0,0,0.18465877,3.0704715,-11.997864)"
         inkscape:connector-curvature="0"
         style="fill-opacity:0.08500001"
         id="path44"
         clip-path="url(#clipPath8)"
         d="m 222.5,53.9375 0,0.03125 c -20.86119,26.889144 -50.78312,50.37872 -82.90625,62.71875 -28.65478,11.00767 -53.638381,11.06039 -70.875,2.21875 -1.85607,-1.04832 -3.675701,-2.21152 -5.5,-3.3125 C 50.582097,106.76175 43.464274,92.152308 44.0625,72.90625 L 34,72.90625 34,146 l 217,0 0,-96 -25,0 z" />
      <path
         inkscape:connector-curvature="0"
         style="fill:none;stroke:#394d54;stroke-width:0.62783986;stroke-linecap:round"
         id="path46"
         d="m 11.495528,9.6129822 c 2.61572,0.1431678 5.407261,0.1688391 7.842227,-0.5943704" />
      <path
         inkscape:connector-curvature="0"
         style="fill:#d4edf1"
         id="path48"
         d="m 21.937102,7.7531009 c 0,0.5574812 -0.451957,1.0094391 -1.009438,1.0094391 -0.55758,0 -1.009637,-0.4519579 -1.009637,-1.0094391 0,-0.5574792 0.452057,-1.0096366 1.009637,-1.0096366 0.557481,0 1.009438,0.4521574 1.009438,1.0096366 z" />
      <path
         inkscape:connector-curvature="0"
         style="fill:#394d54"
         id="path50"
         d="m 21.189443,7.0788231 c -0.08812,0.050933 -0.147751,0.146368 -0.147751,0.2555493 0,0.1629817 0.132126,0.2949111 0.295108,0.2949111 0.111654,0 0.208672,-0.062008 0.258813,-0.153588 0.03541,0.085349 0.05508,0.1791023 0.05508,0.2774054 0,0.3992471 -0.323689,0.7229354 -0.723034,0.7229354 -0.399246,0 -0.723133,-0.3236883 -0.723133,-0.7229354 0,-0.3994427 0.323887,-0.7232308 0.723133,-0.7232308 0.09237,0 0.180486,0.017413 0.261779,0.048953 z" />
      <path
         inkscape:connector-curvature="0"
         style="fill:#394d54"
         id="path52"
         d="m 3.0704715,4.6514029 46.9637905,0 C 49.01167,4.3919969 46.798856,4.0416055 47.163784,2.7014558 c -1.859357,2.1515976 -6.343535,1.509461 -7.475209,0.4484966 -1.260242,1.8278098 -8.596698,1.1330601 -9.108392,-0.2908553 -1.579875,1.8541163 -6.475462,1.8541163 -8.055436,0 -0.51189,1.4239154 -7.848248,2.1186651 -9.108588,0.2908553 C 12.284484,4.2109168 7.8007029,4.8530534 5.9411474,2.7014558 6.3060763,4.0416055 4.0932617,4.3919969 3.0704715,4.6514029" />
    </g>
    <rect
       id="rect3422"
       height="3.5132639"
       width="7.2530227"
       class="st1"
       transform="matrix(0.69572061,-0.71831249,0.69521281,0.71880397,0,0)"
       y="34.289352"
       x="-6.902813"
       style="fill:#333c49" />
    <path
       id="path3424"
       d="m 25.333229,23.094754 -7.46764,7.71559 -3.78956,-3.91537 c -0.66874,-0.69095 -0.66874,-1.84253 0,-2.64864 l 5.01559,-5.18211 c 0.33437,-0.34548 0.7802,-0.57579 1.22603,-0.57579 0.55729,0 1.00311,0.23031 1.33749,0.57579 l 3.67809,4.03053 z"
       class="st0"
       inkscape:connector-curvature="0"
       style="fill:#d40000" />
    <rect
       id="rect3426"
       height="7.25319"
       width="3.5131829"
       class="st1"
       transform="matrix(0.69572061,-0.71831249,0.69521281,0.71880397,0,0)"
       y="86.224091"
       x="48.819462"
       style="fill:#333c49" />
    <path
       id="path3428"
       d="m 102.5732,30.810344 -7.467641,-7.83075 3.78955,-3.91537 c 0.66874,-0.69095 1.783321,-0.69095 2.563521,0 l 5.01558,5.18211 c 0.33437,0.34548 0.55729,0.80611 0.55729,1.26674 0,0.57579 -0.22292,1.03642 -0.55729,1.3819 l -3.90101,3.91537 z"
       class="st0"
       inkscape:connector-curvature="0"
       style="fill:#d40000" />
    <rect
       id="rect3436"
       height="4.6063242"
       width="2.2291479"
       class="st0"
       y="24.706968"
       x="59.104797"
       style="fill:#3f4a5a" />
    <rect
       id="rect3438"
       height="4.6017838"
       width="2.2313373"
       class="st0"
       transform="matrix(0.98383364,-0.1790848,0.16809011,0.98577163,0,0)"
       y="34.421711"
       x="47.017582"
       style="fill:#3f4a5a" />
    <rect
       id="rect3440"
       height="4.5895433"
       width="2.238059"
       class="st0"
       transform="matrix(0.93605807,-0.35184555,0.33212265,0.94323621,0,0)"
       y="41.810173"
       x="33.523853"
       style="fill:#3f4a5a" />
    <rect
       id="rect3442"
       height="4.5696645"
       width="2.2478311"
       class="st0"
       transform="matrix(0.85880203,-0.5123076,0.48781435,0.8729474,0,0)"
       y="46.443714"
       x="18.841949"
       style="fill:#3f4a5a" />
    <rect
       id="rect3444"
       height="4.5460567"
       width="2.2601523"
       class="st0"
       transform="matrix(0.75568932,-0.65493026,0.63029275,0.77635755,0,0)"
       y="48.421223"
       x="3.540369"
       style="fill:#3f4a5a" />
    <rect
       id="rect3446"
       height="4.5201645"
       width="2.2728753"
       class="st0"
       transform="matrix(0.63072745,-0.77600444,0.75531823,0.6553582,0,0)"
       y="47.510342"
       x="-12.168026"
       style="fill:#3f4a5a" />
    <rect
       id="rect3448"
       height="4.4959311"
       width="2.2848821"
       class="st0"
       transform="matrix(0.48838909,-0.87262598,0.85845329,0.51289176,0,0)"
       y="44.080818"
       x="-27.7197"
       style="fill:#3f4a5a" />
    <rect
       id="rect3450-3"
       height="4.475862"
       width="2.2946281"
       class="st0"
       transform="matrix(0.33224053,-0.94319469,0.93601183,0.35196854,0,0)"
       y="38.096565"
       x="-42.506859"
       style="fill:#3f4a5a" />
    <rect
       id="rect3452"
       height="4.4628973"
       width="2.3009651"
       class="st0"
       transform="matrix(0.16885978,-0.98564008,0.98368462,0.17990158,0,0)"
       y="29.790871"
       x="-56.118191"
       style="fill:#3f4a5a" />
    <rect
       id="rect3454"
       height="2.3031621"
       width="4.4582958"
       class="st0"
       y="65.703247"
       x="19.425997"
       style="fill:#3f4a5a" />
    <rect
       id="rect3456"
       height="2.301044"
       width="4.4629483"
       class="st0"
       transform="matrix(0.98387319,-0.17886739,0.16788523,0.98580655,0,0)"
       y="75.40593"
       x="7.2778583"
       style="fill:#3f4a5a" />
    <rect
       id="rect3458"
       height="2.2946191"
       width="4.4757252"
       class="st0"
       transform="matrix(0.93623975,-0.35136183,0.33165902,0.94339933,0,0)"
       y="82.714523"
       x="-6.2948928"
       style="fill:#3f4a5a" />
    <rect
       id="rect3460"
       height="2.2849984"
       width="4.4954886"
       class="st0"
       transform="matrix(0.85982698,-0.51058551,0.48612041,0.87389184,0,0)"
       y="87.657646"
       x="-21.139938"
       style="fill:#3f4a5a" />
    <rect
       id="rect3462"
       height="2.2728112"
       width="4.5199327"
       class="st0"
       transform="matrix(0.75555425,-0.65508608,0.63045102,0.77622903,0,0)"
       y="88.917694"
       x="-36.76664"
       style="fill:#3f4a5a" />
    <rect
       id="rect3464"
       height="2.259949"
       width="4.5455461"
       class="st0"
       transform="matrix(0.63055971,-0.77614074,0.75546147,0.65519308,0,0)"
       y="87.795677"
       x="-52.721405"
       style="fill:#3f4a5a" />
    <rect
       id="rect3466"
       height="2.2477868"
       width="4.5696316"
       class="st0"
       transform="matrix(0.48762271,-0.87305446,0.8589182,0.5121128,0,0)"
       y="84.085342"
       x="-68.431602"
       style="fill:#3f4a5a" />
    <rect
       id="rect3468"
       height="2.2379439"
       width="4.589386"
       class="st0"
       transform="matrix(0.33174549,-0.94336893,0.9362059,0.35145201,0,0)"
       y="77.824074"
       x="-83.399765"
       style="fill:#3f4a5a" />
    <rect
       id="rect3470"
       height="2.2313952"
       width="4.601778"
       class="st0"
       transform="matrix(0.16925289,-0.98557266,0.98360823,0.18031874,0,0)"
       y="69.614891"
       x="-97.022369"
       style="fill:#3f4a5a" />
    <rect
       id="rect3472"
       height="2.2291515"
       width="4.6063304"
       class="st0"
       transform="matrix(0.00168922,-0.99999857,0.99999837,0.00180324,0,0)"
       y="59.255577"
       x="-108.91182"
       style="fill:#3f4a5a" />
    <rect
       id="rect3474"
       height="4.6018634"
       width="2.2313507"
       class="st0"
       transform="matrix(0.98392764,-0.17856764,0.16760278,0.98585461,0,0)"
       y="114.06647"
       x="47.06493"
       style="fill:#3f4a5a" />
    <rect
       id="rect3476"
       height="4.5892382"
       width="2.2378626"
       class="st0"
       transform="matrix(0.93623975,-0.35136183,0.33165902,0.94339933,0,0)"
       y="121.15076"
       x="33.50666"
       style="fill:#3f4a5a" />
    <rect
       id="rect3478"
       height="4.5698166"
       width="2.2478604"
       class="st0"
       transform="matrix(0.85898926,-0.5119936,0.48750544,0.87311995,0,0)"
       y="125.58012"
       x="18.874138"
       style="fill:#3f4a5a" />
    <rect
       id="rect3480"
       height="4.5458522"
       width="2.2600193"
       class="st0"
       transform="matrix(0.75583249,-0.65476504,0.63012492,0.77649377,0,0)"
       y="127.05138"
       x="3.4579613"
       style="fill:#3f4a5a" />
    <rect
       id="rect3482"
       height="4.5198979"
       width="2.272773"
       class="st0"
       transform="matrix(0.63055971,-0.77614074,0.75546147,0.65519308,0,0)"
       y="125.74052"
       x="-12.209835"
       style="fill:#3f4a5a" />
    <rect
       id="rect3484"
       height="4.4959879"
       width="2.2849574"
       class="st0"
       transform="matrix(0.48808027,-0.87279874,0.85864073,0.51257789,0,0)"
       y="121.87569"
       x="-27.638124"
       style="fill:#3f4a5a" />
    <rect
       id="rect3486"
       height="4.4757695"
       width="2.2945592"
       class="st0"
       transform="matrix(0.33244483,-0.9431227,0.93593165,0.35218169,0,0)"
       y="115.4825"
       x="-42.532543"
       style="fill:#3f4a5a" />
    <rect
       id="rect3488"
       height="4.4628143"
       width="2.3009276"
       class="st0"
       transform="matrix(0.16876566,-0.9856562,0.98370287,0.17980171,0,0)"
       y="107.0133"
       x="-56.050144"
       style="fill:#3f4a5a" />
    <rect
       id="rect3490"
       height="2.3031621"
       width="4.4582958"
       class="st0"
       y="65.703247"
       x="96.554504"
       style="fill:#3f4a5a" />
    <rect
       id="rect3492"
       height="2.301044"
       width="4.4629483"
       class="st0"
       transform="matrix(0.98387319,-0.17886739,0.16788523,0.98580655,0,0)"
       y="75.403854"
       x="84.546913"
       style="fill:#3f4a5a" />
    <rect
       id="rect3494"
       height="2.2947717"
       width="4.4761181"
       class="st0"
       transform="matrix(0.93605807,-0.35184555,0.33212265,0.94323621,0,0)"
       y="82.679573"
       x="71.073662"
       style="fill:#3f4a5a" />
    <rect
       id="rect3496"
       height="2.2849684"
       width="4.4956908"
       class="st0"
       transform="matrix(0.85929241,-0.51148466,0.48700479,0.8733993,0,0)"
       y="87.123299"
       x="56.729809"
       style="fill:#3f4a5a" />
    <rect
       id="rect3498"
       height="2.2729783"
       width="4.5199151"
       class="st0"
       transform="matrix(0.7563463,-0.65417144,0.62952205,0.77698261,0,0)"
       y="88.874573"
       x="41.541843"
       style="fill:#3f4a5a" />
    <rect
       id="rect3500"
       height="2.259949"
       width="4.5455461"
       class="st0"
       transform="matrix(0.63055971,-0.77614074,0.75546147,0.65519308,0,0)"
       y="87.817863"
       x="25.954956"
       style="fill:#3f4a5a" />
    <rect
       id="rect3502"
       height="2.2479823"
       width="4.5696473"
       class="st0"
       transform="matrix(0.48888934,-0.87234581,0.85814933,0.51340016,0,0)"
       y="84.054581"
       x="10.793729"
       style="fill:#3f4a5a" />
    <rect
       id="rect3504"
       height="2.2380714"
       width="4.5893002"
       class="st0"
       transform="matrix(0.33340314,-0.94278436,0.93555485,0.35318142,0,0)"
       y="77.941032"
       x="-3.9059675"
       style="fill:#3f4a5a" />
    <rect
       id="rect3506"
       height="2.2313952"
       width="4.601778"
       class="st0"
       transform="matrix(0.16925289,-0.98557266,0.98360823,0.18031874,0,0)"
       y="69.493217"
       x="-17.387678"
       style="fill:#3f4a5a" />
    <ellipse
       ry="5.5275888"
       rx="5.3499551"
       id="circle3508"
       cy="66.854828"
       cx="60.219376"
       class="st2"
       style="fill:#ffffff" />
    <path
       id="path3510"
       d="m 60.219389,74.224949 c -3.901,0 -7.13327,-3.33959 -7.13327,-7.370115 0,-4.03053 3.23227,-7.37012 7.13327,-7.37012 3.90101,0 7.13328,3.33959 7.13328,7.37012 0,4.030525 -3.23227,7.370115 -7.13328,7.370115 z m 0,-11.055175 c -2.00623,0 -3.56663,1.61221 -3.56663,3.68506 0,2.072845 1.5604,3.685055 3.56663,3.685055 2.00624,0 3.56664,-1.61221 3.56664,-3.685055 l 0,0 c 0,-2.07285 -1.5604,-3.68506 -3.56664,-3.68506 z"
       class="st0"
       inkscape:connector-curvature="0"
       style="fill:#3f4a5a" />
    <rect
       id="rect3512"
       height="3.6850593"
       width="6.2416139"
       class="st0"
       y="65.012314"
       x="48.627808"
       style="fill:#3f4a5a" />
    <rect
       id="rect3514"
       height="3.6850593"
       width="20.50816"
       class="st0"
       y="65.012314"
       x="65.569336"
       style="fill:#3f4a5a" />
  </g>
  <text
     xml:space="preserve"
     style="font-style:normal;font-weight:normal;font-size:38.49617767px;line-height:125%;font-family:sans-serif;letter-spacing:0px;word-spacing:0px;fill:#800080;fill-opacity:1;stroke:none;stroke-width:1px;stroke-linecap:butt;stroke-linejoin:miter;stroke-opacity:1"
     x="74.523636"
     y="35.956005"
     id="text3481"
     sodipodi:linespacing="125%"
     transform="scale(1.0221185,0.97836015)"><tspan
       sodipodi:role="line"
       x="74.523636"
       y="35.956005"
       id="tspan4126">Container</tspan></text>
  <text
     xml:space="preserve"
     style="font-style:normal;font-weight:normal;font-size:38.49617767px;line-height:125%;font-family:sans-serif;letter-spacing:0px;word-spacing:0px;fill:#800080;fill-opacity:1;stroke:none;stroke-width:1px;stroke-linecap:butt;stroke-linejoin:miter;stroke-opacity:1"
     x="18.55728"
     y="89.991379"
     id="text3481-5"
     sodipodi:linespacing="125%"
     transform="scale(1.0221185,0.97836015)"><tspan
       sodipodi:role="line"
       x="18.55728"
       y="89.991379"
       id="tspan4126-3">Crontab</tspan></text>
</svg>
